<svg id="Human_Resource" height="512" viewBox="0 0 64 64" width="512" xmlns="http://www.w3.org/2000/svg" data-name="Human Resource"><path d="m61 38v14h-6v-1-12-1z" fill="#78b9eb"/><path d="m29 28v2h-16v-2a8 8 0 1 1 16 0z" fill="#78b9eb"/><circle cx="21" cy="16" fill="#78b9eb" r="4"/><path d="m29 30v-22h-16v22zm19-18v19.28a2.55 2.55 0 0 0 -3.58 1.46l-.42 1.26v3h-8a2.015 2.015 0 0 0 -2 2 2.006 2.006 0 0 0 2 2h1a2.006 2.006 0 0 0 -2 2 2.015 2.015 0 0 0 2 2h1a2.006 2.006 0 0 0 -2 2 2.015 2.015 0 0 0 2 2h1a2.015 2.015 0 0 0 -2 2 2.006 2.006 0 0 0 2 2h9v4h-40v-54h31v9z" fill="#78b9eb"/><g fill="#006df0"><path d="m61 37h-6a1 1 0 0 0 -1 1v-30a1 1 0 0 0 -1-1h-8.59l-4.7-4.71a1.033 1.033 0 0 0 -.71-.29h-31a1 1 0 0 0 -1 1v54a1 1 0 0 0 1 1h4v3a1 1 0 0 0 1 1h40a1 1 0 0 0 1-1v-9a1 1 0 0 0 1 1h6a1 1 0 0 0 1-1v-14a1 1 0 0 0 -1-1zm-9-28v28.59l-1.07-1.07-.58-3.55a3.533 3.533 0 0 0 -1.22-2.13 1.132 1.132 0 0 0 -.13-.1v-18.74a1.033 1.033 0 0 0 -.29-.71l-2.3-2.29zm-12-3.59 5.59 5.59h-5.59zm-31 50.59v-52h29v8a1 1 0 0 0 1 1h8v17.01c-.05 0-.11-.01-.16-.01a3.55 3.55 0 0 0 -3.37 2.42l-.42 1.26a1.185 1.185 0 0 0 -.05.32v2h-7a3 3 0 0 0 -1.6 5.53 2.942 2.942 0 0 0 -.4 1.47 2.983 2.983 0 0 0 1.4 2.53 2.942 2.942 0 0 0 -.4 1.47 2.983 2.983 0 0 0 1.4 2.53 2.97 2.97 0 0 0 -.4 1.47 3.009 3.009 0 0 0 3 3h8v2zm43 4h-38v-2h34a1 1 0 0 0 1-1v-3h2a1.033 1.033 0 0 0 .71-.29l.29-.3zm2-10h-1a1.033 1.033 0 0 0 -.71.29l-1.7 1.71h-11.59a1 1 0 0 1 -1-1 .949.949 0 0 1 .31-.71.928.928 0 0 1 .69-.29h2v-2h-3a1 1 0 0 1 0-2h2v-2h-3a1 1 0 0 1 0-2h3v-2h-4a1 1 0 0 1 -1-1 .949.949 0 0 1 .31-.71.928.928 0 0 1 .69-.29h8a1 1 0 0 0 1-1v-2.84l.37-1.1a1.55 1.55 0 0 1 1.47-1.06 1.6 1.6 0 0 1 1.01.36 1.557 1.557 0 0 1 .52.93l.64 3.87a1.113 1.113 0 0 0 .28.55l2 2a1.033 1.033 0 0 0 .71.29h2zm6 1h-4v-12h4z"/><path d="m29 7h-16a1 1 0 0 0 -1 1v22a1 1 0 0 0 1 1h16a1 1 0 0 0 1-1v-22a1 1 0 0 0 -1-1zm-1 22h-14v-1a7 7 0 0 1 14 0zm-10-13a3 3 0 1 1 3 3 3.009 3.009 0 0 1 -3-3zm10 6.36a9.065 9.065 0 0 0 -3.62-2.7 5 5 0 1 0 -6.76 0 9.065 9.065 0 0 0 -3.62 2.7v-13.36h14z"/><path d="m32 16h13v2h-13z"/><path d="m32 20h13v2h-13z"/><path d="m32 24h13v2h-13z"/><path d="m32 28h13v2h-13z"/><path d="m13 35h4v2h-4z"/><path d="m19 35h11v2h-11z"/><path d="m13 39h17v2h-17z"/><path d="m13 43h17v2h-17z"/><path d="m13 47h17v2h-17z"/></g></svg>